# xmcd CD database file
#
# Track frame offsets:
#	150
#	18343
#	31769
#	45660
#	60990
#	72414
#	92026
#	105662
#	127259
#	149688
#	177605
#	199224
#	219740
#	238179
#	255876
#	269203
#	291442
#	303591
#
# Disc length: 4305 seconds
#
# Revision: 0
# Processed by: cddbd v1.5.2PL0 Copyright (c) Steve Scherf et al.
# Submitted via: CDex 1.51
#
DISCID=2010cf12
DTITLE=Hessen Jazz 2008 - Hessen Jazz Idstein 2008
DYEAR=2008
DGENRE=Jazz
TTITLE0=LLJJO Hessen feat. Dee Daniels - Let´s tall Business
TTITLE1=Trio Bonn Brasil - Incompatilidade de Genios
TTITLE2=Hot Four Creole Jazzband - Cool Runnings
TTITLE3=Oliver Kraus Subways - Cool Runnings
TTITLE4=La Java Blue Quartett - My Heart Belongs to Daddy
TTITLE5=Boost - Inner City Blues
TTITLE6=Bon - Can´t get out of my heart
TTITLE7=Big Brass Pack - Kommisaar Maigret
TTITLE8=Boogi Woogie Campnay Cologne - Lone Sta Shuffle
TTITLE9=Gluzger Jazzband - Koi Geld im Sack
TTITLE10=Latin Jazz Mafia - More tha just Peanuts
TTITLE11=Terminal A - Night Dive
TTITLE12=Funkhaus - High on Funk
TTITLE13=Martin Wagner Tango Transit 08 - Chromasmatic Lunatic
TTITLE14=The Wild Bobbin´Jazzmen - Schieb ab
TTITLE15=Riverside Jazzmen - Nagasaki
TTITLE16=Die Schoppeschlepper - Grad so wie in New Orleans
TTITLE17=Syncopators
EXTD=YEAR: 2008
EXTT0=
EXTT1=
EXTT2=
EXTT3=
EXTT4=
EXTT5=
EXTT6=
EXTT7=
EXTT8=
EXTT9=
EXTT10=
EXTT11=
EXTT12=
EXTT13=
EXTT14=
EXTT15=
EXTT16=
EXTT17=
PLAYORDER=
